<svg id="Capa_1" data-name="Capa 1" xmlns="http://www.w3.org/2000/svg" viewBox="0 0 581.62 107.32"><defs><style>.cls-1{fill:#e52b20;}.cls-2{fill:#ffe209;}.cls-3{fill:#0c682f;}</style></defs><path class="cls-1" d="M582.75-117A38.19,38.19,0,0,0,575-134.27c-9.26-11.53-21.17-16.83-35.67-14.46-17.17,2.79-29.89,17.2-31.54,35.12a41,41,0,0,0,9.14,30.47c.36.45.89.77.24,1.53-2.53,3-5,6-7.46,9-.36.44-.6.49-1.14.18-2-1.16-3.74-.79-5.26,1-1.16,1.38-2.3,2.79-3.45,4.19q-5.16,6.3-10.33,12.6a2.08,2.08,0,0,0,0,2.92q4.85,4.31,9.73,8.55a1.5,1.5,0,0,0,2.36-.12c4.74-5.78,9.51-11.55,14.21-17.36a4,4,0,0,0,0-5.08,1,1,0,0,1,0-1.54c2.39-2.85,4.75-5.71,7.05-8.63.62-.78,1-.63,1.69-.14a36.26,36.26,0,0,0,21.05,6.78,37.49,37.49,0,0,0,6.17-.5C572.08-73.12,587.07-93.27,582.75-117ZM545.18-85.23a24,24,0,0,1-24-23.94c-.12-13.27,10.62-23.88,24.32-24,12.9-.14,23.7,10.73,23.81,24S558.58-85.35,545.18-85.23Z" transform="translate(-446.17 149.91)"/><path class="cls-1" d="M459.89-135.93a3.23,3.23,0,0,0-.38,2.15q0,27.42,0,54.84c0,3.76-1.85,6.34-5.09,7.17a6.62,6.62,0,0,1-8.21-6.38q-.06-28.78,0-57.58c0-6.5,4.42-12.19,10.2-13.61,6.4-1.57,12.33,1.2,15.51,7.28,2,3.85,2.76,8.14,3.86,12.3,3.61,13.56,7.15,27.14,10.74,40.71a7.37,7.37,0,0,0,1.76,3.73,5.74,5.74,0,0,0,.42-2.87q0-27.21,0-54.41c0-3.83,2.32-6.6,5.86-7.07a6.72,6.72,0,0,1,7.44,6.5c0,19.1.11,38.19,0,57.29-.08,10.18-9.83,17.07-18.63,13.39-4.62-1.93-7.34-5.77-8.92-10.41-2.09-6.17-3.43-12.56-5.11-18.85-2.76-10.37-5.45-20.76-8.17-31.14A9,9,0,0,0,459.89-135.93Z" transform="translate(-446.17 149.91)"/><path class="cls-2" d="M635.12-113.61c7.46,4.36,9.33,11.39,9.24,19.33A23,23,0,0,1,630-72.91a19.08,19.08,0,0,1-6.88,1.32q-6,0-12,0a6.71,6.71,0,0,1-6.77-6.8,6.65,6.65,0,0,1,6.71-6.81c3.62,0,7.24,0,10.86,0,5.18,0,8.77-3.74,9-9,.16-3.86-.72-7.15-4-9.45a7.17,7.17,0,0,0-4.23-1.37c-3.95,0-7.89,0-11.84,0a6.72,6.72,0,0,1-6.48-5.89,6.88,6.88,0,0,1,4.67-7.49,8.51,8.51,0,0,1,2.51-.26c2.78,0,5.55,0,8.32-.11a8.34,8.34,0,0,0,7.88-8.78,8.3,8.3,0,0,0-8-8.38c-5.31-.09-10.63,0-15.94-.06-1.3,0-1.14.75-1.14,1.57q0,27.7,0,55.42a7.11,7.11,0,0,1-2.16,5.71,6.23,6.23,0,0,1-7.06,1.26,6.26,6.26,0,0,1-4.08-6q-.06-32.47,0-64.94A6.51,6.51,0,0,1,596-149.7c8.64,0,17.29-.38,25.93.17,8.88.56,17.35,8.54,18.88,17.57a24.84,24.84,0,0,1-.27,10.3C639.66-118.35,638.19-115.46,635.12-113.61Z" transform="translate(-446.17 149.91)"/><path class="cls-2" d="M723.73-117.51c-2.14-15.7-14.73-33.13-38.26-32.22l-2.13.16c-13.83.89-23.93,7.76-30.37,20.2-4.09,7.91-5,16.46-3.73,25.23,1.86,12.7,8.22,22.36,19.33,28.44,7,3.86,14.72,4.63,22.59,3.87a34.39,34.39,0,0,0,26.1-15.34C723.59-96.32,725.22-106.57,723.73-117.51ZM702.49-90.68A21.91,21.91,0,0,1,691-85.59c-5.21.74-10.35.46-15.18-1.78-7.74-3.57-12-10-13.33-18.38a29.4,29.4,0,0,1,1.53-15.72c3.71-9.42,11.71-14.59,22.51-14.59,10.3.05,18.08,4.4,22.23,14.3S711.32-98.26,702.49-90.68Z" transform="translate(-446.17 149.91)"/><path class="cls-3" d="M973.82-110.91c0-10.49.12-21-.06-31.46-.07-4.18,3-7.78,7.38-7.53,4.78.28,9.58-.23,14.36.31,9.85,1.12,17.71,6,24,13.61a36.54,36.54,0,0,1,8.27,23.19c.15,7.73-.51,15.28-4,22.28C1018.31-79.73,1009.39-74,997.93-72c-3.21.56-6.63-2.2-7.18-5.52a6.83,6.83,0,0,1,4.94-7.93,34.55,34.55,0,0,0,6.73-2c6.4-2.89,10.07-8,11.3-14.94,1.07-6,1.34-12-.65-17.81a23.52,23.52,0,0,0-21.93-16c-1.3,0-3-.6-3.76.29s-.21,2.47-.21,3.76q0,26.41,0,52.82a7.43,7.43,0,0,1-2,5.65,6.58,6.58,0,0,1-7.29,1.47,6.46,6.46,0,0,1-4.07-6.19c0-10.82,0-21.65,0-32.47Z" transform="translate(-446.17 149.91)"/><path class="cls-3" d="M821.08-136.24l-3.76,12.35c-4.72,15.61-9.5,31.21-14.12,46.85-1.79,6.06-8.22,7-11.5,3.4a6.94,6.94,0,0,1-1.47-7.1q6.28-20.73,12.56-41.48c1.73-5.72,3.45-11.45,5.21-17.17,2-6.34,7-10.28,13.1-10.27s11.13,3.9,13,10.18q9,29.37,17.85,58.77a6.81,6.81,0,0,1-1.71,7.29,6.66,6.66,0,0,1-6.93,1.55,6,6,0,0,1-4.05-4.42c-1.17-3.85-2.35-7.69-3.46-11.55a1.25,1.25,0,0,0-1.46-1.09c-5.69,0-11.37,0-17.06,0a6.75,6.75,0,0,1-7-6.75,6.72,6.72,0,0,1,6.79-6.91c4.32-.05,8.64,0,13,0,.65,0,1.23.08.91-1C827.75-114.3,824.48-125.06,821.08-136.24Z" transform="translate(-446.17 149.91)"/><path class="cls-3" d="M907.55-121c0-7.31,0-14.63,0-21.94a6.69,6.69,0,0,1,5.94-6.72,6.76,6.76,0,0,1,7.14,4.86,9.84,9.84,0,0,1,.25,2.86c0,13.51,0,27,0,40.54a16.22,16.22,0,0,0,12.26,15.77c9.05,2.18,18.63-5.44,18.68-15,.06-13.95,0-27.9,0-41.85,0-3.54,2-6.34,5.11-7a6.72,6.72,0,0,1,8.3,6.32c0,.29,0,.57,0,.86,0,13.71,0,27.42,0,41.13A29.62,29.62,0,0,1,941.7-72c-15.83,3.2-31.84-8.65-33.92-25.07a35.35,35.35,0,0,1-.23-4.6q0-9.66,0-19.33Z" transform="translate(-446.17 149.91)"/><path class="cls-3" d="M763.69-111.23c-.09,7,.16,12.44-.77,17.83C761-82,753.84-74.67,742.7-72.47c-5.87,1.17-11.79,1-17.7.82-3.31-.08-5.86-3.32-5.83-6.92a6.56,6.56,0,0,1,6-6.62c3.8-.19,7.61.07,11.41-.23a26,26,0,0,0,5.39-1c5.18-1.52,7.25-5.5,8-10.57a85.92,85.92,0,0,0,.31-10.52c.1-5.62-.27-11.25.26-16.86.7-7.4,3-14.09,8.77-19,4.11-3.47,9-5.08,14.16-5.86a88.88,88.88,0,0,1,14.77-.5,6.72,6.72,0,0,1,6.52,6.77,6.78,6.78,0,0,1-6.71,6.88c-3.38.1-6.76,0-10.14.11a23.33,23.33,0,0,0-5.68.93c-5.17,1.45-7.47,5.28-8.17,10.4S763.84-114.64,763.69-111.23Z" transform="translate(-446.17 149.91)"/><path class="cls-3" d="M857.63-110.78q0-16.08,0-32.18a6.7,6.7,0,0,1,5.92-6.75,6.75,6.75,0,0,1,7.15,4.83,10.11,10.11,0,0,1,.26,3q0,27.42,0,54.83c0,2.06-.24,1.81,1.83,1.81,7.94,0,15.88,0,23.82,0A6.6,6.6,0,0,1,903-80.51a7,7,0,0,1-2.49,7.67,6.24,6.24,0,0,1-3.82,1.26c-10.81,0-21.61,0-32.42,0a6.57,6.57,0,0,1-6.65-6.87Q857.61-94.61,857.63-110.78Z" transform="translate(-446.17 149.91)"/></svg>