<svg id="Capa_1" data-name="Capa 1" xmlns="http://www.w3.org/2000/svg" viewBox="0 0 584.52 140.71"><defs><style>.cls-1{fill:#e52b20;}.cls-2{fill:#ffe209;}.cls-3{fill:#0c682f;}</style></defs><path class="cls-1" d="M102.62,338.17a3,3,0,0,0,.61.07A3,3,0,0,1,102.62,338.17Z" transform="translate(-6.21 -272.85)"/><path class="cls-1" d="M103.49,338.26h0Z" transform="translate(-6.21 -272.85)"/><path class="cls-1" d="M102.45,338.1l.17.07Z" transform="translate(-6.21 -272.85)"/><path class="cls-1" d="M145.17,310.64a41.82,41.82,0,0,0-12.56-27.29,33.89,33.89,0,0,0-15-8.94c-10.34-2.81-20.21-2-29.49,3.79a39.26,39.26,0,0,0-12.77,12.9,40.5,40.5,0,0,0-5.87,16.35c-1.58,12.44,1.32,23.72,9.22,33.6.29.37.49.61.12,1.07-2.57,3.18-5.1,6.39-7.63,9.59a.68.68,0,0,1-1,.21c-2.27-1.2-3.88-.89-5.48,1.09-3.15,3.86-6.25,7.75-9.36,11.63-1.5,1.87-3,3.76-4.49,5.61a2.32,2.32,0,0,0-.44,1.28c-.18,1.45,1.11,1.84,1.83,2.63,2.62,2.88,5.91,5,8.6,7.86a1.46,1.46,0,0,0,2.34-.2c.52-.66,1-1.38,1.49-2q6.15-7.62,12.34-15.23c1.65-2,1.75-3.84.24-6.05-.25-.36-.36-.56,0-.95q3.78-4.72,7.52-9.49c.41-.52.7-.55,1.25-.16A41.94,41.94,0,0,0,90.62,351a37.65,37.65,0,0,0,18,4,34.66,34.66,0,0,0,17.89-5.44,42.07,42.07,0,0,0,9.39-8.25,37.5,37.5,0,0,0,5.6-8.94A44.34,44.34,0,0,0,145.17,310.64Zm-14.34,6.6A24.39,24.39,0,0,1,104,338.51h0c-.63,0-1.38.34-1.76-.53C89,335.58,80.86,322.53,83.1,309.65c2.36-13.5,14.91-22.3,27.54-20.09C123.78,291.86,132.58,303.33,130.83,317.24Z" transform="translate(-6.21 -272.85)"/><path class="cls-1" d="M103.78,338.34a1.29,1.29,0,0,0-.28-.08h0l-.26,0a3,3,0,0,1-.61-.07h0l-.17-.07-.18-.12c.38.87,1.13.5,1.76.53h0a1.3,1.3,0,0,0-.2-.15Z" transform="translate(-6.21 -272.85)"/><path class="cls-1" d="M104,338.51h0a1.3,1.3,0,0,0-.2-.15A1.3,1.3,0,0,1,104,338.51Z" transform="translate(-6.21 -272.85)"/><path class="cls-1" d="M103.2,338.24a2.71,2.71,0,0,1-.58-.07h0A2.71,2.71,0,0,0,103.2,338.24Z" transform="translate(-6.21 -272.85)"/><polygon class="cls-1" points="96.4 65.32 96.4 65.32 96.4 65.32 96.4 65.32"/><path class="cls-1" d="M48.56,339.87a6.55,6.55,0,0,0,.42-3.06q0-27.93,0-55.84a7.34,7.34,0,0,1,1.38-4.77A6.58,6.58,0,0,1,57.71,274a6.71,6.71,0,0,1,4.62,6.43c.05,2.78,0,5.56,0,8.34q0,24.81,0,49.62c0,5.29-1.92,9.79-6.16,13a13,13,0,0,1-16.12-.62,21,21,0,0,1-6-10.3c-2.41-9.23-4.74-18.47-7.11-27.7q-3-11.53-6-23.06a4.29,4.29,0,0,0-1-2c-.57.66-.38,1.39-.38,2.06q0,28.2,0,56.41a8.08,8.08,0,0,1-1.41,5.05,6.64,6.64,0,0,1-7.49,2.24,6.85,6.85,0,0,1-4.47-6.56c0-4.48,0-8.95,0-13.43q0-22.41,0-44.81a15.39,15.39,0,0,1,5.51-12.33c4.64-3.9,12.75-3.6,17.08.6A20,20,0,0,1,34,286.56q3.63,14.28,7.33,28.53c1.8,7,3.58,13.92,5.43,20.86C47.14,337.28,47.36,338.72,48.56,339.87Z" transform="translate(-6.21 -272.85)"/><path class="cls-2" d="M196.06,310.62c6.13,3.47,8.39,9,9.15,15.37a28.2,28.2,0,0,1-.91,11.73,24.07,24.07,0,0,1-7.15,10.95,19.92,19.92,0,0,1-14.35,5.13c-3.59-.05-7.18,0-10.77,0-4.64.05-7.32-4.07-6.71-8.09.58-3.78,3.11-5.81,7-5.83,3.45,0,6.9,0,10.34,0a9,9,0,0,0,9.27-9.1c.07-2.11.21-4.28-.85-6.21-1.77-3.23-4.24-5.4-8.25-5.29-3.49.1-7,0-10.48,0a6.54,6.54,0,0,1-6.2-3.48,7,7,0,0,1,.14-7.13,6,6,0,0,1,5.33-3.34c2.79-.09,5.57-.13,8.36-.08a8,8,0,0,0,8.1-5.2,8.8,8.8,0,0,0-1.29-9.41,7.75,7.75,0,0,0-6.6-3.12c-5,0-10,0-15,0-1.25,0-1.57.32-1.57,1.57q.06,28.35,0,56.69a9.82,9.82,0,0,1-.39,3.49,6.64,6.64,0,0,1-7.43,4.48,6.71,6.71,0,0,1-5.55-6.7c0-6.6,0-13.2,0-19.8V281c0-4.77,2.67-7.46,7.43-7.46q11.19,0,22.39,0c4.28,0,8.43.83,11.92,3.37,5.89,4.29,9.66,9.94,10.14,17.41.25,3.88,0,7.73-1.72,11.31C199.39,307.62,198.33,309.59,196.06,310.62Z" transform="translate(-6.21 -272.85)"/><path class="cls-2" d="M283.41,299.07a41.79,41.79,0,0,0-4.23-8.72,35.74,35.74,0,0,0-15.84-13.89,33.94,33.94,0,0,0-12.91-2.77c-7.58-.29-14.92.45-21.57,4.6a36.1,36.1,0,0,0-8,6.33,41.66,41.66,0,0,0-7.75,12,45.42,45.42,0,0,0-2.59,25.06,39.82,39.82,0,0,0,6.37,16.11,36.9,36.9,0,0,0,15.28,13.09,31.69,31.69,0,0,0,11.48,2.72c7.77.53,15.26-.14,22.27-4a37.41,37.41,0,0,0,12.89-11.93,40.78,40.78,0,0,0,6.94-22.17C285.71,308.66,285,303.79,283.41,299.07ZM270,325.41a22.06,22.06,0,0,1-12.17,12.45,25,25,0,0,1-18.42.67c-8.75-3-13.72-9.6-15.51-18.61a28.54,28.54,0,0,1-.56-6.32,27.47,27.47,0,0,1,6-18.19,18.12,18.12,0,0,1,3.19-3,22.37,22.37,0,0,1,13.38-4.84c3.41-.08,6.82-.07,10.07,1.06a22.47,22.47,0,0,1,14.3,13.93A30.53,30.53,0,0,1,270,325.41Z" transform="translate(-6.21 -272.85)"/><path class="cls-3" d="M536.54,313.41c0-10.84.05-21.68,0-32.52,0-4.91,3.47-7.69,7.43-7.47,4.85.27,9.73-.23,14.58.32a30,30,0,0,1,11.67,3.52,39.61,39.61,0,0,1,8.2,5.88c7.76,7.65,12.13,16.8,12.32,27.81.12,6.47-.13,12.88-2.27,19.08a36.48,36.48,0,0,1-8.17,13.49,38.52,38.52,0,0,1-8.46,6.2,30.52,30.52,0,0,1-10.68,3.58,6.58,6.58,0,0,1-7.57-5.54c-.69-3.76,1.53-7.44,5.08-8.08a29.46,29.46,0,0,0,7.6-2.72,18,18,0,0,0,9.53-11.45,38.94,38.94,0,0,0,.7-20.07,23,23,0,0,0-4.51-9,28.41,28.41,0,0,0-6.59-5.84c-3.77-2.62-8-3.29-12.42-3.28-3,0-3,0-3,3.08q0,27.93,0,55.84c0,3.42-1.58,6-4.27,6.95-4.56,1.69-9.07-1.56-9.09-6.58C536.52,335.55,536.54,324.48,536.54,313.41Z" transform="translate(-6.21 -272.85)"/><path class="cls-3" d="M383,287.4c-.84,2.75-1.61,5.2-2.34,7.66q-2.58,8.7-5.13,17.41c-3.06,10.33-6.15,20.67-9.19,31-.63,2.16-1.21,4.33-2,6.44a6.36,6.36,0,0,1-6,3.9,6.52,6.52,0,0,1-6-3.89,8.86,8.86,0,0,1-.08-6.33q4.23-14.14,8.44-28.31c3.1-10.51,6-21.08,9.3-31.55s14.49-12.89,21.63-6.91a13.71,13.71,0,0,1,4.34,6.61q4.46,14.9,8.85,29.8t9,30.06c.66,2.25,1,4.45,0,6.73a6.6,6.6,0,0,1-6.38,3.78,5.59,5.59,0,0,1-5.66-4c-1.29-4.12-2.53-8.24-3.71-12.39-.3-1-.65-1.48-1.87-1.46-5.71.08-11.43.05-17.14,0a6.54,6.54,0,0,1-6.56-5.8c-.52-3.79,1.41-7,4.79-7.92a8.06,8.06,0,0,1,2.24-.19c4.16,0,8.32,0,12.47,0,1,0,1.45,0,1.06-1.27-1.73-5.64-3.36-11.32-5-17l-4.44-15C383.38,288.47,383.24,288.09,383,287.4Z" transform="translate(-6.21 -272.85)"/><path class="cls-3" d="M527.78,303.62c0,7.49.18,15,0,22.47a27.24,27.24,0,0,1-6.64,16.72,36.34,36.34,0,0,1-7.76,6.88c-5.2,3.58-11,4.37-17,4a21.06,21.06,0,0,1-8.84-2.27C476.82,345.64,470.26,337,470,324.64c-.3-14.69-.08-29.4-.07-44.1a6.7,6.7,0,0,1,12.11-4.2A7.38,7.38,0,0,1,483.3,281v42.27a15.27,15.27,0,0,0,4.82,11.62c2.43,2.26,5.09,4.21,8.55,4.79,4.77.8,8.64-.92,12.12-3.92a15.72,15.72,0,0,0,5.69-12.52c-.05-13.95,0-27.89,0-41.84a8.66,8.66,0,0,1,1-4.61,6.65,6.65,0,0,1,7.33-3,6.57,6.57,0,0,1,4.95,5.54,17.32,17.32,0,0,1,.12,2.39q0,11,0,21.91Z" transform="translate(-6.21 -272.85)"/><path class="cls-3" d="M311.77,312.85c.12-5.08-.17-10.18.55-15.24.92-6.52,3-12.49,8.06-17.07,4.28-3.89,9.44-5.78,15.11-6.5a104.89,104.89,0,0,1,14.29-.43c3.72.05,6.19,2.36,6.64,6.18a6.79,6.79,0,0,1-4.6,7.39,11.35,11.35,0,0,1-3.23.3c-4,.06-8-.18-12,.44-5.35.83-9.07,3.48-10.44,9a35.94,35.94,0,0,0-.86,8.26c-.08,7.06.19,14.13-.16,21.2-.33,6.64-2.06,12.85-6.19,18.22a15.65,15.65,0,0,1-2,2c-4.83,4.36-10.62,6.35-17,6.93-4.24.38-8.49.24-12.74.24a7,7,0,0,1,0-13.89c4.52-.07,9.08.28,13.56-.54,4.15-.75,7.69-2.56,9.43-6.65a19.94,19.94,0,0,0,1.56-7.83C311.78,320.86,311.77,316.86,311.77,312.85Z" transform="translate(-6.21 -272.85)"/><path class="cls-3" d="M433.13,309.43c0,9.61,0,19.23,0,28.84,0,1.24.23,1.66,1.59,1.65,8.07-.07,16.15-.05,24.23,0a6.46,6.46,0,0,1,6.69,6.27,6.75,6.75,0,0,1-5.24,7.47,9.36,9.36,0,0,1-1.83.16H426.81a6.65,6.65,0,0,1-7-7q0-33.15,0-66.3a6.69,6.69,0,0,1,12-4.28,7,7,0,0,1,1.34,4.5Z" transform="translate(-6.21 -272.85)"/><path class="cls-3" d="M102.53,390.88a5.86,5.86,0,0,1,4.33-2.37,17,17,0,0,1,4.94.07c3.61.52,5.72,2.81,6.09,6.87.49,5.5.11,11,.21,16.53,0,.8-.4,1.07-1.15,1-1.14,0-2.27,0-3.4,0-.87,0-1.11-.34-1.1-1.18,0-4.43,0-8.86,0-13.29a10.76,10.76,0,0,0-.14-2,3.72,3.72,0,0,0-5.58-2.42,2.35,2.35,0,0,0-1,1.62,13.26,13.26,0,0,0-.24,2.95c0,4.29,0,8.58,0,12.87,0,1.15-.37,1.43-1.45,1.44-4.24,0-4.23.06-4.24-4.2,0-3.92,0-7.83,0-11.74a3,3,0,0,0-2.63-3.31c-2.66-.55-4.14.58-4.16,3.29,0,4.8-.06,9.61,0,14.42,0,1.2-.4,1.53-1.55,1.54-4.15,0-4.15.05-4.15-4.1s0-8,0-12a13.84,13.84,0,0,1,1-4.93,5,5,0,0,1,3.58-3.13,15.24,15.24,0,0,1,7.29-.16A5.17,5.17,0,0,1,102.53,390.88Z" transform="translate(-6.21 -272.85)"/><path class="cls-3" d="M199.84,400.79a3.87,3.87,0,0,0,1.87-1.88c1.55-4.1.61-9.26-5.44-9.82-4.05-.38-8.11,0-12.16-.2-1.27-.05-1.61.41-1.6,1.63.05,6.31,0,12.61,0,18.92,0,3.74,0,3.79,3.78,3.72s7.74.34,11.58-.25c3-.46,4.86-2.21,5.31-4.85C203.77,404.69,202.81,402.51,199.84,400.79ZM189,394.22c1,0,1.89,0,2.83,0v0c1,0,2-.07,3,0a1.85,1.85,0,0,1,1.88,2.15c-.05,1.24-.81,1.74-1.94,1.76-1.93,0-3.86,0-5.79.06-.52,0-.79-.12-.76-.71a23.72,23.72,0,0,0,0-2.53C188.16,394.36,188.42,394.2,189,394.22Zm6.5,13.59c-1,0-2.07,0-3.11,0h0c-1.13,0-2.26,0-3.39,0-.58,0-.9-.15-.81-.78a1.31,1.31,0,0,0,0-.28c-.08-3.22-.08-3.22,3.15-3.22,1.37,0,2.73,0,4.1,0,1.54.06,2.17.78,2.15,2.34C197.6,407.16,197,407.76,195.51,407.81Z" transform="translate(-6.21 -272.85)"/><path class="cls-3" d="M79.42,402c1.2-.69,2.38-1.37,2.85-2.69,1.46-4.08.31-9.56-5.66-10.18-4.47-.46-9-.09-13.43-.19-.89,0-1.12.43-1.11,1.23q0,11,0,21.89c0,.84.28,1.2,1.15,1.16a29.54,29.54,0,0,1,3.26,0c1,.07,1.32-.31,1.29-1.29-.06-2.26,0-4.52,0-6.78,0-.38-.18-.94.51-.94,1.79,0,3.64-.29,5.34.3s3.08,1.62,3.27,3.74a32.25,32.25,0,0,1,.2,3.8c0,.84.28,1.2,1.15,1.17,1.13-.05,2.27-.05,3.4,0,.85,0,1.16-.29,1.16-1.15a23.74,23.74,0,0,0-.87-7A4.77,4.77,0,0,0,79.42,402Zm-4.14-2.87c-2.3.12-4.62.08-6.92.11-.4,0-.64-.14-.61-.57,0-.1,0-.19,0-.28,0-1.32-.46-3.05.2-3.83s2.56-.15,3.56-.28c1.43,0,2.51-.06,3.59,0a2,2,0,0,1,2.06,2.18C77.18,397.92,76.5,399,75.28,399.1Z" transform="translate(-6.21 -272.85)"/><path class="cls-3" d="M436.5,401.14c0-3.53,0-7.07,0-10.6,0-1.19.28-1.67,1.57-1.65,5.48.06,11,.05,16.44,0,1.19,0,1.54.42,1.54,1.57,0,3.77,0,3.77-3.78,3.77-3,0-6,0-9.06,0-.78,0-1,.18-1.05,1,0,3-.07,3,3,3,2.78,0,5.57,0,8.35,0,1.12,0,1.48.45,1.52,1.48.15,3.86.17,3.86-3.65,3.86-2.74,0-5.48,0-8.22,0-.7,0-1,.14-1,.92-.09,3.37-.12,3.37,3.2,3.37s6.33,0,9.49,0c1.1,0,1.49.34,1.5,1.46,0,3.9.07,3.9-3.82,3.9-4.86,0-9.73,0-14.59,0-1.14,0-1.46-.35-1.44-1.46C436.54,408.21,436.5,404.68,436.5,401.14Z" transform="translate(-6.21 -272.85)"/><path class="cls-3" d="M431.83,396.44c-1.28-4.63-3.42-6.92-8.41-7.38-3.67-.34-7.36-.07-11-.15-1,0-1.12.55-1.12,1.36,0,3.63,0,7.25,0,10.88s0,7.15,0,10.73c0,.83.13,1.33,1.15,1.31,3.44-.05,6.89.07,10.33-.05,4.73-.15,7.84-2.65,9-7.21A18.19,18.19,0,0,0,431.83,396.44Zm-6,8.33a3.91,3.91,0,0,1-3.91,3.05c-1.6,0-3.69.57-4.66-.22s-.22-3-.31-4.58c0-.66,0-1.32,0-2,0-2,0-4,0-5.93,0-.66.16-.92.86-.89,1.18,0,2.36,0,3.54,0,2.73,0,4.49,1.45,4.86,4.11A15,15,0,0,1,425.83,404.77Z" transform="translate(-6.21 -272.85)"/><path class="cls-3" d="M588.92,398.16c-1-6.09-3.72-9.05-10.09-9.22-3.07-.08-6.14,0-9.21-.05-1.21,0-1.66.32-1.63,1.59.07,3.53,0,7.06,0,10.6v10.73a.66.66,0,0,1,0,.14c-.1.9.27,1.25,1.21,1.24,3.4,0,6.8.06,10.19,0,5.31-.16,8.36-3.21,9.36-8.38A18.61,18.61,0,0,0,588.92,398.16Zm-6.34,6.56a3.94,3.94,0,0,1-4,3.11c-1.32,0-2.64,0-4,0-.76,0-1-.23-.94-1,0-2,0-4,0-5.94s0-3.86,0-5.79c0-.75.22-1,1-.94,1.18,0,2.36,0,3.54,0a4.47,4.47,0,0,1,4.79,4.18A15.25,15.25,0,0,1,582.58,404.72Z" transform="translate(-6.21 -272.85)"/><path class="cls-3" d="M371.62,401.15c0-3.63,0-7.25,0-10.88,0-.79-.05-1.4-1.09-1.37-3.11.1-6.23-.18-9.34.16-5,.54-7.7,2.83-8.91,7.64-1.29,5.14-.65,10.4-.77,15.61,0,.38.11.83.58.83,1.59,0,3.36.51,4.72-.22.89-.47.21-2.1.33-3.2a.88.88,0,0,0,0-.28c-.09-.63.2-.8.8-.8q3.62,0,7.22,0c.61,0,.78.18.83.79.1,1.23-.66,2.89.45,3.56.94.57,2.47.16,3.74.19h.15c1,.14,1.3-.32,1.29-1.29C371.6,408.31,371.62,404.73,371.62,401.15Zm-5.92,1.93c-.82.74-2.77.23-4.22.25-1.17,0-2.35,0-3.53,0-.6,0-.83-.19-.79-.81a18.4,18.4,0,0,1,.78-4.84,5,5,0,0,1,4.95-3.45c3.1-.09,3.1-.09,3.1,3V399C365.86,400.26,366.63,402.24,365.7,403.08Z" transform="translate(-6.21 -272.85)"/><path class="cls-3" d="M322,390.17c.07-.76-.11-1.28-1-1.26-3.07.07-6.14-.13-9.2.12-5.64.46-8.43,3.65-9.41,9.14-.77,4.34-.4,8.74-.46,13.11,0,1.9,0,1.9,2,1.9,3.55,0,3.59,0,3.66-3.56,0-.85.32-1,1.07-1,1.56.05,3.12,0,4.67,0,3.08,0,3.08,0,3.12,3,0,.14,0,.29,0,.43-.06.86.36,1.16,1.2,1.11s1.7,0,2.55,0c1.88,0,1.88,0,1.88-1.82V390.17Zm-6.44,13.17c-2.4,0-4.8,0-7.19,0-.72,0-.87-.29-.83-.92a19.37,19.37,0,0,1,.72-4.56,5,5,0,0,1,5-3.62c3.14-.09,3.14-.09,3.14,2.95v1.69c0,1.22,0,2.45,0,3.66C316.42,403.17,316.19,403.35,315.58,403.34Z" transform="translate(-6.21 -272.85)"/><path class="cls-3" d="M515.61,401.16c0-3.67,0-7.34,0-11,0-.79-.17-1.26-1.08-1.23-3.07.07-6.14-.13-9.2.12-5.61.47-8.42,3.66-9.39,9.17-.75,4.3-.39,8.64-.45,13,0,2,0,2.05,2,2,1.15,0,2.6.52,3.4-.29s.22-2.16.23-3.28c0-.73.21-1,1-.95q3.46.06,6.94,0c.71,0,1,.16,1,.92,0,1.16-.56,2.65.31,3.39s2.27.15,3.44.23a3.08,3.08,0,0,1,.43,0c1.13.17,1.47-.31,1.45-1.42C515.57,408.23,515.61,404.69,515.61,401.16ZM509,403.35c-2.3,0-4.61-.05-6.91,0-.87,0-1-.34-1-1.08a22.24,22.24,0,0,1,.66-4.3,5.05,5.05,0,0,1,5-3.73c3.13-.09,3.13-.09,3.13,3v1.69c0,1.18-.05,2.35,0,3.52C510,403.18,509.75,403.36,509,403.35Z" transform="translate(-6.21 -272.85)"/><path class="cls-3" d="M142.61,401.16V390.28a.65.65,0,0,1,0-.14c.08-.79-.17-1.26-1.08-1.23-3.06.07-6.13-.13-9.2.12-5.61.47-8.41,3.66-9.38,9.17-.76,4.3-.4,8.64-.46,13,0,2,0,2.05,2,2,1.16,0,2.6.53,3.4-.29s.23-2.16.23-3.28c0-.74.22-1,1-.95q3.48.06,6.94,0c.72,0,1,.16,1,.92,0,1.16-.56,2.65.31,3.39s2.27.15,3.44.23a2.94,2.94,0,0,1,.42,0c1.13.17,1.48-.31,1.46-1.43C142.57,408.22,142.61,404.69,142.61,401.16Zm-6.6,2.19c-2.3,0-4.61-.05-6.91,0-.88,0-1-.35-1-1.09a22.15,22.15,0,0,1,.67-4.29,5.05,5.05,0,0,1,5-3.73c3.12-.09,3.12-.09,3.12,3v1.69c0,1.17-.05,2.35,0,3.52C137,403.19,136.73,403.36,136,403.35Z" transform="translate(-6.21 -272.85)"/><path class="cls-3" d="M57.53,400.68c0-.8,0-1.6,0-2.4-.27-4.52-2.74-8-6.6-9.23a15.49,15.49,0,0,0-9.19-.06,8.09,8.09,0,0,0-4.91,3.72c-2.3,3.9-2.38,8.1-1.56,12.3s3.06,7.13,7.41,8.09a16.32,16.32,0,0,0,7.16,0,8.34,8.34,0,0,0,4.56-2.37A13.08,13.08,0,0,0,57.53,400.68Zm-6.47,4.25a4.68,4.68,0,0,1-4.81,3.18,4.75,4.75,0,0,1-4.82-3.17,13.87,13.87,0,0,1-.31-7.23,5,5,0,0,1,5.48-4,5,5,0,0,1,4.92,4.71c.12.83.14,1.68.2,2.53A13.31,13.31,0,0,1,51.06,404.93Z" transform="translate(-6.21 -272.85)"/><path class="cls-3" d="M229.57,400.69a19.57,19.57,0,0,0,0-2.54c-.61-4.39-2.51-7.93-6.58-9.11a16,16,0,0,0-9.19-.05,8.05,8.05,0,0,0-4.92,3.71c-2.3,3.9-2.38,8.1-1.57,12.3s3,7.14,7.41,8.09a16.17,16.17,0,0,0,7.16,0,8.29,8.29,0,0,0,4.57-2.36A13.07,13.07,0,0,0,229.57,400.69Zm-6.45,4.2c-.65,2.11-2.51,3.27-5.06,3.22a4.73,4.73,0,0,1-4.64-3.4,14,14,0,0,1-.33-6.54,5,5,0,0,1,5.37-4.5,5.06,5.06,0,0,1,5.11,4.67c.12.84.13,1.69.2,2.53A13.37,13.37,0,0,1,223.12,404.89Z" transform="translate(-6.21 -272.85)"/><path class="cls-3" d="M154.2,413.18c-1.89,0-3.78-.05-5.67,0-1,0-1.28-.35-1.31-1.31-.09-4.05-.12-4.05,4-4.06,2.74,0,5.48,0,8.22,0,2,0,2.73-1.22,2.06-3-.41-1.1-1.38-1.16-2.33-1.21-1.93-.1-3.86.07-5.79-.21-5.13-.74-6.81-4.49-5.8-9.37.65-3.14,3-4.48,5.88-4.84,4.18-.53,8.39-.14,12.59-.24.71,0,1,.31,1,1,.33,4.3.34,4.3-3.92,4.3-2.32,0-4.63,0-7,0a7.19,7.19,0,0,0-1.53.18,1.67,1.67,0,0,0-1.42,1.83,1.79,1.79,0,0,0,1.58,1.88,7.75,7.75,0,0,0,2,.1,18.62,18.62,0,0,1,5.41.6,7.24,7.24,0,0,1,4.59,10.79c-1.6,2.84-4.23,3.35-7.05,3.53-1.83.11-3.68,0-5.52,0Z" transform="translate(-6.21 -272.85)"/><path class="cls-3" d="M383.29,413.18c-1.94,0-3.88-.05-5.81,0-1,0-1.27-.33-1.23-1.23s.05-1.89,0-2.83.34-1.33,1.32-1.31c2.79.05,5.58,0,8.36,0h1.56c2.36,0,3.26-.58,3.22-2,0-1.7-.83-2.22-3.2-2.26a43.21,43.21,0,0,1-5.08-.18c-5.11-.7-6.92-4.43-5.85-9.46.64-3,2.86-4.36,5.64-4.74,4.27-.59,8.59-.17,12.88-.26.64,0,1,.29.93.94V390c.28,4.22.28,4.22-4,4.22H385a3.72,3.72,0,0,0-1.91.42,1.76,1.76,0,0,0-.79,2,1.71,1.71,0,0,0,1.47,1.51,7.93,7.93,0,0,0,2.12.12,17.53,17.53,0,0,1,5.4.63,7.21,7.21,0,0,1,4.49,10.81c-1.6,2.78-4.17,3.29-6.94,3.48-1.83.12-3.68,0-5.52,0Z" transform="translate(-6.21 -272.85)"/><path class="cls-3" d="M478,413.18c-1.94,0-3.88-.05-5.81,0-.95,0-1.27-.33-1.23-1.23s.05-1.89,0-2.82.34-1.34,1.32-1.32c2.79.05,5.58,0,8.36,0h2c2,0,2.83-.66,2.79-2-.05-1.63-.83-2.21-2.91-2.26a50.71,50.71,0,0,1-5.37-.18c-5.11-.7-6.92-4.43-5.86-9.46.65-3,2.87-4.36,5.65-4.74,4.27-.59,8.59-.17,12.88-.26.64,0,1,.29.93.94V390c.28,4.22.28,4.22-4,4.22h-7.09a3.72,3.72,0,0,0-1.91.42,1.76,1.76,0,0,0-.79,2,1.7,1.7,0,0,0,1.47,1.51,7.93,7.93,0,0,0,2.12.12,17.6,17.6,0,0,1,5.4.63,7.21,7.21,0,0,1,4.49,10.81c-1.6,2.78-4.18,3.29-6.94,3.48-1.83.12-3.68,0-5.52,0Z" transform="translate(-6.21 -272.85)"/><path class="cls-3" d="M10.77,401.09c0-3.58,0-7.16,0-10.74,0-.75,0-1.45,1.05-1.44,3.3,0,6.62-.09,9.91.09,5.42.28,7.92,3.1,8.86,8.5.74,4.29.22,8.66.31,13,.05,2.69,0,2.69-2.69,2.69-3,0-3,0-3-2.89l0-10a8.75,8.75,0,0,0-.59-3.32A3.94,3.94,0,0,0,21,394.26c-1.46-.06-3.31-.5-4.26.2s-.26,2.64-.28,4c0,4.38,0,8.76,0,13.15,0,1.09-.2,1.58-1.47,1.57-4.22,0-4.22,0-4.22-4.2Z" transform="translate(-6.21 -272.85)"/><path class="cls-3" d="M326.81,401c0-3.48.05-7,0-10.46,0-1.33.44-1.7,1.72-1.66,2.83.08,5.67,0,8.5.05,5.85.17,8.66,2.76,9.62,8.65.79,4.85.19,9.78.32,14.67,0,.66-.28.94-.94.92a29.31,29.31,0,0,0-3.11,0c-1.22.1-1.66-.3-1.64-1.57.07-3.73,0-7.45,0-11.17a11,11,0,0,0-.07-1.41c-.49-3.58-1.91-4.81-5.51-4.82-3.19,0-3.19,0-3.19,3.21,0,4.66-.07,9.33,0,14,0,1.49-.44,1.94-1.85,1.76a12,12,0,0,0-2.4,0c-1.11.1-1.5-.29-1.48-1.43C326.85,408.18,326.81,404.6,326.81,401Z" transform="translate(-6.21 -272.85)"/><path class="cls-3" d="M267.29,401c0-3.54,0-7.07,0-10.6,0-1.21.41-1.61,1.56-1.52a17.25,17.25,0,0,0,2.69,0c1.09-.08,1.48.28,1.47,1.43-.06,5.37,0,10.74-.06,16.1,0,1.23.36,1.56,1.49,1.42.75-.09,1.51,0,2.27-.05a4.73,4.73,0,0,0,4.24-3.34,17.55,17.55,0,0,0,.84-6.26c0-2.63,0-5.27,0-7.9,0-1.05.36-1.46,1.41-1.4s2.17,0,3.25,0c.68,0,1.05.24,1,1-.17,4.84.36,9.69-.54,14.51-1,5.39-4.6,8.61-10.09,8.75-2.73.06-5.47,0-8.21,0-1,0-1.32-.32-1.31-1.3C267.31,408.27,267.29,404.64,267.29,401Z" transform="translate(-6.21 -272.85)"/><path class="cls-3" d="M543.32,397.62c0-2.49,0-5,0-7.48,0-.95.31-1.28,1.21-1.24a20.12,20.12,0,0,0,2.69,0c1.35-.14,1.83.34,1.8,1.73-.07,4.33,0,8.66,0,13,0,3.74,3.33,5.78,6.76,4.19a3.56,3.56,0,0,0,2-3.58c0-4.57.06-9.14,0-13.7,0-1.36.43-1.74,1.69-1.64a29.6,29.6,0,0,0,3,0c.7,0,1.05.3,1,1-.12,5.45.48,10.94-.29,16.35-.68,4.71-3.11,6.78-7.65,7.19a21.09,21.09,0,0,1-5.49-.22c-4.24-.72-6.53-4.59-6.67-8.15-.1-2.49,0-5,0-7.48Z" transform="translate(-6.21 -272.85)"/><path class="cls-3" d="M233.84,401c0-3.57,0-7.15,0-10.73,0-1.07.37-1.46,1.4-1.37,1.35.12,3.06-.57,4,.3s.29,2.58.3,3.92q.06,6.78,0,13.56c0,.92.24,1.18,1.16,1.17,3.64-.06,7.27,0,10.91,0,1,0,1.4.29,1.41,1.36.05,4,.09,4-4,4-4.58,0-9.16,0-13.73,0-1.14,0-1.47-.34-1.45-1.45C233.88,408.17,233.84,404.59,233.84,401Z" transform="translate(-6.21 -272.85)"/><path class="cls-3" d="M520.4,401c0-3.53,0-7.06,0-10.59,0-1.22.41-1.6,1.56-1.51a14.37,14.37,0,0,0,2.54,0c1.21-.12,1.64.27,1.63,1.55-.08,5.37,0,10.74-.06,16.11,0,1.08.28,1.32,1.33,1.3,3.58-.07,7.17,0,10.76,0,1,0,1.39.32,1.4,1.37.05,4,.08,4-3.84,4-4.63,0-9.26,0-13.88,0-1.15,0-1.45-.37-1.44-1.46C520.43,408.16,520.4,404.58,520.4,401Z" transform="translate(-6.21 -272.85)"/><path class="cls-3" d="M262.47,401c0,3.62,0,7.25,0,10.87,0,1-.27,1.38-1.28,1.3a19.63,19.63,0,0,0-3,0c-1.13.1-1.46-.32-1.45-1.44,0-6.54,0-13.08,0-19.62,0-3.22,0-3.22,3.2-3.22,3,0,2.44-.17,2.46,2.51C262.49,394.62,262.47,397.82,262.47,401Z" transform="translate(-6.21 -272.85)"/><path class="cls-3" d="M297.61,401.16c0,3.58,0,7.15,0,10.73,0,1-.28,1.38-1.29,1.3a19.63,19.63,0,0,0-3,0c-1.13.1-1.46-.32-1.45-1.44.05-6.54,0-13.08,0-19.62,0-3.22,0-3.22,3.21-3.22,3,0,2.43-.17,2.46,2.51C297.63,394.66,297.61,397.91,297.61,401.16Z" transform="translate(-6.21 -272.85)"/></svg>